<svg xmlns="http://www.w3.org/2000/svg">
  <symbol id="linkedin" viewBox="0 0 94 94">
    <desc>Logo for LinkedIn</desc>
    <path d="M89,0H5C2.239,0,0,2.239,0,5v84c0,2.761,2.239,5,5,5h84c2.762,0,5-2.239,5-5V5C94,2.239,91.762,0,89,0z M26.414,84.201 H10.966V34.503h15.447L26.414,84.201L26.414,84.201z M18.693,27.71c-4.951,0-8.959-4.013-8.959-8.958 c0.001-4.938,4.01-8.952,8.959-8.952c4.939,0,8.951,4.012,8.951,8.952C27.644,23.697,23.632,27.71,18.693,27.71z M84.266,84.2 H68.832V60.033c0-5.764-0.105-13.178-8.029-13.178c-8.033,0-9.268,6.278-9.268,12.759V84.2H36.099V34.503h14.816v6.79h0.207 c2.063-3.907,7.103-8.027,14.614-8.027c15.641,0,18.529,10.294,18.529,23.673V84.2L84.266,84.2z"/>
  </symbol>
  <symbol id="twitter" viewBox="0 0 543.684 543.684">
    <desc>Logo for Twitter</desc>
    <path d="M527.657,106.697c-2.681,0.783-5.361,1.512-8.041,2.191c-16.384,4.137-17.89-1.322-6.028-13.366 c5.312-5.397,10.006-11.267,14.082-17.607c9.137-14.217,1.212-20.417-14.333-13.776c-5.545,2.369-11.182,4.517-16.897,6.432 c-16.017,5.379-38.746-2.735-53.018-11.787c-18.018-11.426-38.495-17.136-61.438-17.136c-32.137,0-59.529,11.334-82.192,33.984 c-22.656,22.662-33.99,50.062-33.99,82.191c0,4.394,0.251,8.855,0.747,13.378c0.814,7.362-11.585,12.699-28.317,10.336 c-36.194-5.11-70.582-16.077-103.171-32.889c-32.32-16.671-60.845-37.65-85.57-62.938C37.672,73.624,21.687,74.665,17.274,90.98 c-2.644,9.78-3.959,19.951-3.959,30.515c0,19.908,4.675,38.372,14.027,55.392c4.651,8.47,10.098,16.138,16.353,22.999 c10.521,11.549,8.911,18.25-5.734,14.144c-14.639-4.106-25.367-10.202-25.367-9.804s0,0.722,0,0.722 c0,28.048,8.807,52.693,26.432,73.911c10.857,13.072,23.47,23.17,37.834,30.282c15.147,7.503,22.203,11.688,13.733,12.784 c-5.11,0.661-10.251,0.991-15.422,0.991c-3.5,0-7.172-0.159-11.003-0.483c-6.059-0.514-7.148,12.111,2.038,26.298 c7.301,11.273,16.646,21.193,28.03,29.762c11.579,8.721,24.058,14.981,37.417,18.794c16.255,4.633,19.517,13.073,5.024,21.763 c-35.863,21.519-75.551,32.277-119.058,32.277c-4.902,0-9.578-0.11-14.045-0.324c-7.754-0.373-2.552,6.456,12.417,14.296 c46.775,24.499,97.43,36.738,151.972,36.738c41.237,0,79.964-6.529,116.176-19.596c36.199-13.066,67.136-30.576,92.791-52.516 c25.655-21.94,47.779-47.173,66.365-75.711c18.581-28.537,32.424-58.33,41.543-89.376c9.106-31.053,13.666-62.167,13.666-93.342 c0-2.809-0.024-5.331-0.067-7.552c-0.086-4.174,10.955-15.472,23.28-27.032c5.563-5.22,10.869-10.698,15.937-16.444 C548.833,107.78,543.882,101.966,527.657,106.697z"/>
  </symbol>
  <symbol id="github" viewBox="0 0 438.549 438.549">
    <desc>Logo for Github</desc>
    <path d="M409.132,114.573c-19.608-33.596-46.205-60.194-79.798-79.8C295.736,15.166,259.057,5.365,219.271,5.365 c-39.781,0-76.472,9.804-110.063,29.408c-33.596,19.605-60.192,46.204-79.8,79.8C9.803,148.168,0,184.854,0,224.63 c0,47.78,13.94,90.745,41.827,128.906c27.884,38.164,63.906,64.572,108.063,79.227c5.14,0.954,8.945,0.283,11.419-1.996 c2.475-2.282,3.711-5.14,3.711-8.562c0-0.571-0.049-5.708-0.144-15.417c-0.098-9.709-0.144-18.179-0.144-25.406l-6.567,1.136 c-4.187,0.767-9.469,1.092-15.846,1c-6.374-0.089-12.991-0.757-19.842-1.999c-6.854-1.231-13.229-4.086-19.13-8.559 c-5.898-4.473-10.085-10.328-12.56-17.556l-2.855-6.57c-1.903-4.374-4.899-9.233-8.992-14.559 c-4.093-5.331-8.232-8.945-12.419-10.848l-1.999-1.431c-1.332-0.951-2.568-2.098-3.711-3.429c-1.142-1.331-1.997-2.663-2.568-3.997 c-0.572-1.335-0.098-2.43,1.427-3.289c1.525-0.859,4.281-1.276,8.28-1.276l5.708,0.853c3.807,0.763,8.516,3.042,14.133,6.851 c5.614,3.806,10.229,8.754,13.846,14.842c4.38,7.806,9.657,13.754,15.846,17.847c6.184,4.093,12.419,6.136,18.699,6.136 c6.28,0,11.704-0.476,16.274-1.423c4.565-0.952,8.848-2.383,12.847-4.285c1.713-12.758,6.377-22.559,13.988-29.41 c-10.848-1.14-20.601-2.857-29.264-5.14c-8.658-2.286-17.605-5.996-26.835-11.14c-9.235-5.137-16.896-11.516-22.985-19.126 c-6.09-7.614-11.088-17.61-14.987-29.979c-3.901-12.374-5.852-26.648-5.852-42.826c0-23.035,7.52-42.637,22.557-58.817 c-7.044-17.318-6.379-36.732,1.997-58.24c5.52-1.715,13.706-0.428,24.554,3.853c10.85,4.283,18.794,7.952,23.84,10.994 c5.046,3.041,9.089,5.618,12.135,7.708c17.705-4.947,35.976-7.421,54.818-7.421s37.117,2.474,54.823,7.421l10.849-6.849 c7.419-4.57,16.18-8.758,26.262-12.565c10.088-3.805,17.802-4.853,23.134-3.138c8.562,21.509,9.325,40.922,2.279,58.24 c15.036,16.18,22.559,35.787,22.559,58.817c0,16.178-1.958,30.497-5.853,42.966c-3.9,12.471-8.941,22.457-15.125,29.979 c-6.191,7.521-13.901,13.85-23.131,18.986c-9.232,5.14-18.182,8.85-26.84,11.136c-8.662,2.286-18.415,4.004-29.263,5.146 c9.894,8.562,14.842,22.077,14.842,40.539v60.237c0,3.422,1.19,6.279,3.572,8.562c2.379,2.279,6.136,2.95,11.276,1.995 c44.163-14.653,80.185-41.062,108.068-79.226c27.88-38.161,41.825-81.126,41.825-128.906 C438.536,184.851,428.728,148.168,409.132,114.573z"/>
  </symbol>
</svg>
